<?xml version="1.0" encoding="UTF-8"?>
<svg id="Layer_1" data-name="Layer 1" xmlns="http://www.w3.org/2000/svg" viewBox="0 0 157.66 129.66">
  <defs>
    <style>
      .cls-1 {
        fill: #53473F;
        stroke-width: 0px;
      }
    </style>
  </defs>
  <path class="cls-1" d="M34.66,125.48c-5.75,0-10.98-1.54-15.57-4.58-4.46-2.95-8.04-6.94-10.64-11.85-2.58-4.89-3.89-10.3-3.89-16.1v-50.88c0-6.16,1.35-11.77,4-16.67,2.64-4.88,6.2-8.84,10.58-11.79,4.46-3,9.47-4.66,14.9-4.94.09,0,.17,0,.26,0,3.45,0,6.05,2.6,6.05,6.05s-2.5,5.95-5.86,6.04c-4.92.29-9.02,2.3-12.53,6.13-3.57,3.9-5.31,8.87-5.31,15.18v50.88c0,3.97.81,7.42,2.47,10.55,1.64,3.1,3.8,5.49,6.59,7.3,2.68,1.74,5.61,2.59,8.95,2.59h86.26c4.15,0,7.82-.83,10.9-2.47,3.06-1.62,5.37-3.74,7.06-6.49,1.67-2.71,2.48-5.61,2.48-8.88v-56.11c0-5.41-1.79-9.63-5.47-12.91-3.88-3.45-8.52-5.17-14.19-5.27h-.5c-5.42,0-9.79,1.46-13.35,4.48-3.44,2.92-5.12,7.4-5.12,13.7v7.84c0,3.45-2.6,6.05-6.04,6.05s-6.05-2.6-6.05-6.05v-7.84c0-9.86,3.14-17.53,9.34-22.8,5.83-4.96,12.97-7.47,21.23-7.47.22,0,.65,0,.65,0,5.61,0,10.93,1.32,15.72,3.91,4.81,2.61,8.68,6.21,11.52,10.7,2.88,4.58,4.34,9.84,4.34,15.65v56.11c0,5.47-1.46,10.56-4.34,15.13-2.83,4.48-6.72,8.11-11.58,10.78-4.86,2.67-10.44,4.02-16.61,4.02H34.66ZM53.83,53.34c-3.45,0-6.04-2.6-6.04-6.05v-7.49c0-9.43,3.01-16.98,8.94-22.42,5.81-5.33,12.87-8.02,20.98-8.02,3.45,0,6.05,2.6,6.05,6.04s-2.6,6.05-6.05,6.05c-5.15,0-9.35,1.54-12.84,4.71-3.35,3.04-4.98,7.5-4.98,13.64v7.49c0,3.45-2.6,6.05-6.05,6.05Z"/>
  <path class="cls-1" d="M34.66,120.48c-4.76,0-9.03-1.25-12.81-3.75-3.78-2.5-6.77-5.84-8.97-10.02-2.21-4.18-3.31-8.77-3.31-13.77v-50.88c0-5.34,1.13-10.11,3.4-14.29,2.26-4.18,5.25-7.52,8.97-10.02,3.72-2.5,7.84-3.86,12.37-4.1.7,0,1.05.35,1.05,1.05s-.35,1.04-1.05,1.04c-6.27.35-11.62,2.94-16.03,7.75-4.42,4.82-6.62,11.01-6.62,18.56v50.88c0,4.76,1.02,9.06,3.05,12.9,2.03,3.83,4.79,6.88,8.28,9.15s7.38,3.4,11.67,3.4h86.26c4.99,0,9.41-1.02,13.24-3.05,3.83-2.03,6.82-4.79,8.97-8.28,2.15-3.49,3.22-7.32,3.22-11.5v-56.11c0-6.85-2.38-12.4-7.14-16.64-4.76-4.24-10.57-6.42-17.43-6.53-6.86-.11-12.58,1.77-17.16,5.66-4.59,3.89-6.88,9.73-6.88,17.51v7.84c0,.7-.35,1.05-1.05,1.05s-1.05-.35-1.05-1.05v-7.84c0-8.36,2.53-14.69,7.58-18.99,5.05-4.3,11.24-6.39,18.56-6.27,4.88,0,9.35,1.11,13.42,3.31,4.07,2.21,7.29,5.2,9.67,8.97,2.38,3.78,3.57,8.1,3.57,12.98v56.11c0,4.53-1.19,8.69-3.57,12.46-2.38,3.78-5.64,6.8-9.76,9.06-4.12,2.26-8.86,3.4-14.2,3.4H34.66ZM53.83,48.34c-.7,0-1.04-.35-1.04-1.05v-7.49c0-8.01,2.44-14.26,7.32-18.73,4.88-4.47,10.74-6.71,17.6-6.71.7,0,1.05.35,1.05,1.04s-.35,1.05-1.05,1.05c-6.39,0-11.79,2-16.21,6.01-4.42,4.01-6.62,9.79-6.62,17.34v7.49c0,.7-.35,1.05-1.05,1.05Z"/>
</svg>