<svg width="40" height="42" viewBox="0 0 40 42" fill="none" xmlns="http://www.w3.org/2000/svg">
<path d="M14.6077 41.9839C12.6087 41.9839 10.8396 41.5125 9.30535 40.5643C7.76612 39.6161 6.56672 38.3089 5.69715 36.6482C4.82759 34.9875 4.3928 33.0804 4.3928 30.9375C4.3928 28.2964 5.02249 26.0464 6.28186 24.1821C7.54123 22.3179 9.08546 21.0268 10.9145 20.3143H5.47726C3.88306 20.3143 2.56872 19.8161 1.54423 18.825C0.514743 17.8286 0 16.4946 0 14.8179V6.70714C0 4.99821 0.414793 3.6 1.23938 2.5125C2.06397 1.425 3.2034 0.883929 4.65267 0.883929C4.82759 0.883929 4.91254 0.975 4.91254 1.1625C4.91254 1.35 4.82759 1.44107 4.65267 1.44107C3.34833 1.44107 2.33383 1.9125 1.6092 2.86071C0.884558 3.80893 0.524738 5.08929 0.524738 6.70714V14.8179C0.524738 16.3393 0.974513 17.5446 1.87406 18.4286C2.77361 19.3125 3.97301 19.7571 5.48226 19.7571H17.0915C18.3358 19.7571 19.4903 19.4411 20.5497 18.8036C21.6092 18.1661 22.2389 17.1804 22.4388 15.8464C22.4988 15.6589 22.5837 15.5679 22.6986 15.5679C22.9285 15.5679 23.0185 15.6911 22.9585 15.9429C22.6986 17.4643 21.989 18.5786 20.8296 19.275C19.6702 19.9768 18.4258 20.325 17.0915 20.325H13.3933C11.914 20.4161 10.5297 20.9304 9.24038 21.8625C7.95102 22.7946 6.90655 24.0375 6.11194 25.5911C5.31234 27.1446 4.91754 28.9339 4.91754 30.9482C4.91754 32.9625 5.32234 34.8161 6.13693 36.4018C6.94653 37.9875 8.08596 39.2196 9.55022 40.1089C11.0145 40.9929 12.7036 41.4375 14.6177 41.4375H25.0975C26.8366 41.4375 28.3858 41.0411 29.7501 40.2482C31.1144 39.4554 32.1939 38.3357 32.9885 36.8946C33.7831 35.4482 34.1829 33.7339 34.1829 31.7464C34.1829 29.5393 33.6732 27.6161 32.6637 25.9661C32.1439 25.0982 31.4843 24.3482 30.6847 23.7268C29.8851 23.1054 28.8656 22.7946 27.6212 22.7946C27.4463 22.7946 27.3613 22.7036 27.3613 22.5161C27.3613 22.3286 27.4463 22.2375 27.6212 22.2375H29.7951C30.8096 22.2375 31.5942 21.9054 32.1439 21.2357C32.6937 20.5661 32.9685 19.7518 32.9685 18.7875V18.3214C32.9685 18.1339 33.0535 18.0429 33.2284 18.0429H35.967C36.9515 18.0429 37.7861 17.6679 38.4658 16.9232C39.1454 16.1786 39.4853 15.2786 39.4853 14.2179V7.78393H33.2234C33.0485 7.78393 32.9635 7.69286 32.9635 7.50536V4.33393C32.9635 3.27857 32.6537 2.38393 32.029 1.65536C31.4043 0.926786 30.6297 0.5625 29.7051 0.5625H26.3568C25.3723 0.5625 24.5677 0.873214 23.943 1.49464C23.3183 2.11607 23.0085 2.95714 23.0085 4.0125V6.48214C23.0085 6.66964 22.9235 6.76071 22.7486 6.76071C22.5737 6.76071 22.4888 6.66964 22.4888 6.48214C22.4888 5.05179 22.019 3.85714 21.0745 2.89286C20.1299 1.92857 18.8956 1.44643 17.3563 1.44643C15.8171 1.44643 14.6627 1.875 13.7931 2.72679C12.9235 3.58393 12.4888 4.8 12.4888 6.38571C12.4888 6.57321 12.4038 6.66429 12.2289 6.66429C12.054 6.66429 11.969 6.57321 11.969 6.38571C11.969 4.67679 12.4538 3.33214 13.4233 2.35179C14.3928 1.37143 15.7071 0.883929 17.3563 0.883929C18.5457 0.883929 19.5902 1.17321 20.4848 1.74643C21.3843 2.31964 22.049 3.09107 22.4838 4.05536V4.00714C22.4838 2.82857 22.8436 1.86429 23.5682 1.11964C24.2929 0.375 25.2224 0 26.3518 0H29.7001C30.7746 0 31.6692 0.428571 32.3938 1.28036C33.1184 2.1375 33.4783 3.15536 33.4783 4.33393V7.22143H39.7401C39.915 7.22143 40 7.3125 40 7.5V14.2125C40 15.4232 39.6002 16.4571 38.8056 17.3143C38.011 18.1714 37.0565 18.5946 35.957 18.5946H33.4783V18.7821C33.4783 19.7464 33.1934 20.6304 32.6287 21.4393C32.064 22.2482 31.1994 22.6821 30.04 22.7464C31.5742 23.5232 32.7336 24.7607 33.5182 26.4536C34.3028 28.1464 34.6927 29.9089 34.6927 31.7411C34.6927 33.825 34.2629 35.6304 33.4083 37.1732C32.5537 38.7107 31.3993 39.9 29.95 40.7411C28.5007 41.5821 26.8766 42 25.0825 42H14.6027L14.6077 41.9839ZM5.95702 6.60536C5.98701 4.96071 6.42179 3.59464 7.26137 2.50179C8.10095 1.41429 9.35032 0.873214 10.9995 0.873214C11.1744 0.873214 11.2594 0.964286 11.2594 1.15179C11.2594 1.33929 11.1744 1.43036 10.9995 1.43036C9.49025 1.43036 8.37081 1.90179 7.63118 2.85C6.89155 3.79821 6.50675 5.04643 6.47676 6.6C6.47676 6.7875 6.3918 6.87857 6.21689 6.87857C6.04198 6.87857 5.95702 6.7875 5.95702 6.6V6.60536Z" fill="#2F2824"/>
</svg>
