<svg width="280" height="56" viewBox="0 0 280 56" fill="#FF6B00" xmlns="http://www.w3.org/2000/svg">
<path d="M19.6386 55.5474C16.9512 55.5474 14.5728 54.926 12.5101 53.6763C10.4408 52.4265 8.82831 50.7037 7.65927 48.5148C6.49022 46.326 5.9057 43.8123 5.9057 40.988C5.9057 37.5071 6.75225 34.5415 8.44535 32.0844C10.1384 29.6272 12.2145 27.9256 14.6735 26.9865H7.36365C5.22039 26.9865 3.45339 26.3298 2.07606 25.0236C0.692021 23.7103 0 21.9521 0 19.7421V9.05203C0 6.79964 0.557648 4.95677 1.66623 3.52343C2.7748 2.09009 4.30666 1.37695 6.25507 1.37695C6.49022 1.37695 6.60444 1.49698 6.60444 1.74411C6.60444 1.99124 6.49022 2.11127 6.25507 2.11127C4.5015 2.11127 3.13761 2.73262 2.16341 3.98238C1.1892 5.23214 0.705459 6.91967 0.705459 9.05203V19.7421C0.705459 21.7474 1.31014 23.336 2.5195 24.5011C3.72885 25.6661 5.34133 26.2521 7.37036 26.2521H22.9778C24.6507 26.2521 26.2028 25.8356 27.6271 24.9953C29.0515 24.1551 29.898 22.8559 30.1668 21.0978C30.2474 20.8506 30.3616 20.7306 30.5161 20.7306C30.8252 20.7306 30.9461 20.893 30.8655 21.2249C30.5161 23.2301 29.5621 24.6988 28.0034 25.6167C26.4446 26.5416 24.7717 27.0006 22.9778 27.0006H18.006C16.0173 27.1206 14.1562 27.7985 12.4228 29.027C10.6894 30.2556 9.28518 31.8937 8.21691 33.9414C7.14193 35.989 6.61116 38.3473 6.61116 41.0022C6.61116 43.657 7.15537 46.1 8.25051 48.19C9.33893 50.28 10.8708 51.904 12.8393 53.0761C14.8079 54.2411 17.0788 54.8272 19.6521 54.8272H33.7411C36.0792 54.8272 38.162 54.3047 39.9962 53.2597C41.8303 52.2147 43.2816 50.739 44.3498 48.8396C45.4181 46.9332 45.9556 44.6738 45.9556 42.0542C45.9556 39.1452 45.2703 36.6103 43.9131 34.4356C43.2144 33.2918 42.3275 32.3032 41.2525 31.4842C40.1776 30.6651 38.8069 30.2556 37.134 30.2556C36.8989 30.2556 36.7846 30.1356 36.7846 29.8885C36.7846 29.6413 36.8989 29.5213 37.134 29.5213H40.0566C41.4205 29.5213 42.4753 29.0835 43.2144 28.2009C43.9534 27.3183 44.323 26.2451 44.323 24.9741V24.3598C44.323 24.1127 44.4372 23.9927 44.6723 23.9927H48.3542C49.6777 23.9927 50.7997 23.4984 51.7135 22.517C52.6272 21.5355 53.0841 20.3493 53.0841 18.9513V10.4713H44.6656C44.4305 10.4713 44.3162 10.3512 44.3162 10.1041V5.9241C44.3162 4.53312 43.8997 3.35397 43.0599 2.3937C42.22 1.43343 41.1786 0.953298 39.9357 0.953298H35.4342C34.1106 0.953298 33.0289 1.36282 32.1891 2.18188C31.3492 3.00093 30.9327 4.10947 30.9327 5.50045V8.75548C30.9327 9.00261 30.8185 9.12264 30.5833 9.12264C30.3482 9.12264 30.2339 9.00261 30.2339 8.75548C30.2339 6.87025 29.6024 5.29569 28.3326 4.02475C27.0627 2.7538 25.4032 2.11833 23.3339 2.11833C21.2645 2.11833 19.7125 2.68319 18.5435 3.80586C17.3744 4.93559 16.7899 6.53839 16.7899 8.62839C16.7899 8.87551 16.6757 8.99555 16.4405 8.99555C16.2054 8.99555 16.0912 8.87551 16.0912 8.62839C16.0912 6.37599 16.7429 4.60373 18.0463 3.3116C19.3497 2.01948 21.1167 1.37695 23.3339 1.37695C24.9329 1.37695 26.3371 1.75823 27.5398 2.51373C28.7491 3.26924 29.6427 4.28599 30.2272 5.55694V5.49339C30.2272 3.94002 30.711 2.66907 31.6852 1.68762C32.6594 0.70617 33.909 0.211914 35.4275 0.211914H39.929C41.3735 0.211914 42.5761 0.776778 43.5503 1.89945C44.5245 3.02917 45.0083 4.37072 45.0083 5.9241V9.72987H53.4267C53.6619 9.72987 53.7761 9.8499 53.7761 10.097V18.9442C53.7761 20.54 53.2386 21.9027 52.1704 23.0324C51.1021 24.1621 49.8188 24.7199 48.3407 24.7199H45.0083V24.9671C45.0083 26.238 44.6253 27.4031 43.8661 28.4692C43.1069 29.5354 41.9446 30.1073 40.3858 30.1921C42.4485 31.2159 44.0072 32.8469 45.062 35.0781C46.1168 37.3094 46.6409 39.6324 46.6409 42.0471C46.6409 44.7938 46.0631 47.1733 44.9142 49.2068C43.7653 51.2332 42.2133 52.8007 40.2649 53.9093C38.3165 55.0178 36.1329 55.5686 33.7209 55.5686H19.6319L19.6386 55.5474ZM8.00864 8.91788C8.04895 6.75021 8.63347 4.94971 9.76221 3.50931C10.8909 2.07596 12.5706 1.36282 14.7878 1.36282C15.0229 1.36282 15.1371 1.48286 15.1371 1.72999C15.1371 1.97711 15.0229 2.09715 14.7878 2.09715C12.7587 2.09715 11.2537 2.7185 10.2594 3.96826C9.26503 5.21802 8.74769 6.86319 8.70738 8.91082C8.70738 9.15795 8.59316 9.27798 8.35801 9.27798C8.12285 9.27798 8.00864 9.15795 8.00864 8.91082V8.91788Z" fill="#2F2824"/>
<path d="M92.2942 54.9895C90.8497 54.9895 89.6269 54.4388 88.6124 53.3302C87.5979 52.2217 87.094 50.8095 87.094 49.0937C87.094 48.8466 87.2082 48.7266 87.4433 48.7266C87.6785 48.7266 87.7927 48.8466 87.7927 49.0937C87.7927 50.5694 88.2093 51.798 89.0491 52.7795C89.8889 53.7609 90.9706 54.2552 92.2942 54.2552H96.7352C98.0588 54.2552 99.1674 53.7609 100.068 52.7795C100.961 51.798 101.411 50.5694 101.411 49.0937V33.3693C101.411 33.0022 101.586 32.8186 101.935 32.8186H105.268C106.632 32.8186 107.787 32.3243 108.748 31.3429C109.702 30.3614 110.179 29.154 110.179 27.7207V17.7085H101.7C101.505 17.7085 101.411 17.6096 101.411 17.4049V5.97344C101.411 4.54009 100.961 3.31151 100.068 2.2877C99.1741 1.26388 98.0588 0.755505 96.7352 0.755505H92.2942C90.9706 0.755505 89.8889 1.27094 89.0491 2.2877C88.2093 3.31151 87.7927 4.54009 87.7927 5.97344V13.9592C87.7927 14.2063 87.6785 14.3264 87.4433 14.3264C87.2082 14.3264 87.094 14.2063 87.094 13.9592V13.7121C87.094 10.3935 86.0056 7.77394 83.822 5.84634C81.6384 3.91874 78.7561 2.95847 75.1684 2.95847H65.9907C64.4723 2.95847 63.1285 3.30445 61.9595 4.00347C60.7904 4.70249 59.8633 5.63452 59.1847 6.79955C58.4994 7.96458 58.1634 9.27083 58.1634 10.6971C58.1231 13.9733 59.4467 16.2681 62.1409 17.5743C63.0748 16.6352 64.1296 15.908 65.2987 15.3925C66.4677 14.8842 67.6972 14.6017 68.9805 14.5664C69.2156 14.5664 69.3299 14.6865 69.3299 14.9336C69.3299 15.1807 69.2156 15.3008 68.9805 15.3008C67.0321 15.3431 65.2382 15.9786 63.6056 17.2072C61.9662 18.4357 60.6628 20.0668 59.6886 22.0932C58.7144 24.1197 58.2306 26.4003 58.2306 28.9422C58.2306 31.9289 58.842 34.5132 60.0716 36.6809C61.3011 38.8485 62.9471 40.529 65.0098 41.7152C67.0724 42.9014 69.3366 43.4945 71.7889 43.4945H78.1582C80.7314 43.4945 82.7537 42.7673 84.2385 41.3127C85.7167 39.8582 86.4624 38.1071 86.4624 36.0595C86.4624 34.5838 86.1198 33.2564 85.4412 32.0702C84.7559 30.8839 83.8556 30.0013 82.7201 29.4294C82.6059 29.3447 82.5454 29.2458 82.5454 29.1187C82.5454 28.9563 82.6059 28.8434 82.7201 28.7798C82.8344 28.7163 82.9553 28.7304 83.0695 28.8081C84.2789 29.4223 85.2598 30.3826 86.019 31.6959C86.7782 33.0092 87.1612 34.4638 87.1612 36.0595C87.1612 37.5352 86.7916 38.8979 86.0526 40.1477C85.3135 41.3975 84.2721 42.393 82.9284 43.1274C81.5847 43.8617 79.9924 44.2359 78.1649 44.2359H71.7956C69.2224 44.2359 66.8574 43.6146 64.694 42.3648C62.5306 41.115 60.7972 39.3428 59.4937 37.048C58.1903 34.7533 57.5386 32.049 57.5386 28.9422C57.5386 26.7746 57.9081 24.7481 58.6472 22.8629C59.3862 20.9776 60.3604 19.4031 61.5698 18.1321C58.842 16.6564 57.4781 14.1781 57.4781 10.6971C57.4781 9.10137 57.8477 7.66803 58.5867 6.39708C59.3258 5.12614 60.3403 4.11645 61.6236 3.35388C62.9068 2.59837 64.3715 2.21709 66.0041 2.21709H75.1818C78.185 2.21709 80.7113 2.85962 82.7806 4.15175C84.8432 5.44388 86.2877 7.23026 87.1074 9.52502V5.95931C87.1074 4.36357 87.6113 2.9726 88.6258 1.77932C89.6403 0.593107 90.8631 0 92.3077 0H96.7487C98.2268 0 99.4966 0.593107 100.551 1.77932C101.606 2.96554 102.13 4.35651 102.13 5.95931V16.953H110.488C110.757 16.953 110.898 17.0942 110.898 17.3837V27.7066C110.898 29.3023 110.361 30.6792 109.292 31.823C108.217 32.9669 106.887 33.5459 105.288 33.5459H102.13V49.0867C102.13 50.8095 101.606 52.2217 100.551 53.3232C99.4966 54.4317 98.2335 54.9824 96.7487 54.9824H92.3077L92.2942 54.9895Z" fill="#2F2824"/>
<path d="M148.993 55.3642C147.548 55.3642 146.326 54.8135 145.311 53.705C144.296 52.5964 143.793 51.1842 143.793 49.4685V37.6134C142.704 39.661 140.93 41.3062 138.471 42.556C136.019 43.8057 133.15 44.4271 129.878 44.4271C127.305 44.4271 124.859 43.841 122.541 42.676C120.224 41.511 118.336 39.7387 116.871 37.3592C115.413 34.9868 114.681 31.9506 114.681 28.2649V9.29253C114.681 7.94392 115.091 6.83537 115.91 5.97396C116.73 5.11254 117.744 4.68183 118.947 4.68183H133.56C133.795 4.68183 133.909 4.80186 133.909 5.04899C133.909 5.29612 133.795 5.41615 133.56 5.41615H118.947C117.892 5.41615 117.039 5.78331 116.374 6.5247C115.709 7.25902 115.379 8.18399 115.379 9.29253V28.272C115.379 31.6682 116.051 34.5208 117.395 36.8085C118.739 39.1032 120.512 40.8261 122.716 41.9699C124.92 43.1138 127.305 43.6927 129.878 43.6927C133.15 43.6927 136.053 43.0149 138.586 41.6663C141.119 40.3177 142.832 38.3689 143.732 35.827C143.813 35.5446 143.947 35.3963 144.142 35.3963C144.377 35.3963 144.491 35.5375 144.491 35.827V49.4614C144.491 50.9371 144.908 52.1657 145.748 53.1471C146.588 54.1286 147.669 54.6229 148.993 54.6229H153.434C154.757 54.6229 155.866 54.1286 156.766 53.1471C157.66 52.1657 158.11 50.9371 158.11 49.4614V34.3513C158.11 33.9841 158.285 33.8006 158.634 33.8006H161.967C163.33 33.8006 164.486 33.3063 165.447 32.3249C166.401 31.3434 166.878 30.136 166.878 28.7027V18.6905H158.399C158.204 18.6905 158.11 18.5916 158.11 18.3798V6.95541C158.11 5.52206 157.66 4.29349 156.766 3.26967C155.873 2.24586 154.757 1.73748 153.434 1.73748H148.993C147.669 1.73748 146.588 2.25292 145.748 3.26967C144.908 4.29349 144.491 5.52206 144.491 6.95541V8.43111C144.491 8.67824 144.377 8.79827 144.142 8.79827C143.907 8.79827 143.793 8.67824 143.793 8.43111V6.95541C143.793 5.35967 144.296 3.96869 145.311 2.77541C146.326 1.5892 147.548 0.996094 148.993 0.996094H153.434C154.912 0.996094 156.182 1.5892 157.237 2.77541C158.291 3.96163 158.815 5.35261 158.815 6.95541V17.9491H167.174C167.442 17.9491 167.583 18.0903 167.583 18.3798V28.7027C167.583 30.2984 167.046 31.6753 165.978 32.8191C164.903 33.963 163.572 34.5419 161.973 34.5419H158.815V49.4685C158.815 51.1913 158.291 52.6035 157.237 53.705C156.182 54.8135 154.919 55.3642 153.434 55.3642H148.993Z" fill="#2F2824"/>
<path d="M209.313 55.5478C207.868 55.5478 206.645 54.997 205.631 53.8885C204.616 52.78 204.112 51.3678 204.112 49.652C204.112 49.4049 204.227 49.2849 204.462 49.2849C204.697 49.2849 204.811 49.4049 204.811 49.652C204.811 51.1277 205.228 52.3563 206.068 53.3377C206.907 54.3192 207.989 54.8135 209.313 54.8135H214.049C215.373 54.8135 216.482 54.3192 217.382 53.3377C218.275 52.3563 218.726 51.1277 218.726 49.652V6.95537C218.726 5.52203 218.275 4.29345 217.382 3.26963C216.488 2.24582 215.373 1.73744 214.049 1.73744H209.548C208.103 1.73744 206.954 2.25288 206.101 3.26963C205.241 4.29345 204.818 5.52203 204.818 6.95537V14.694C204.818 14.9411 204.704 15.0612 204.469 15.0612C204.314 15.0612 204.193 14.9623 204.119 14.7505C203.77 12.8229 202.977 10.9518 201.754 9.13009C200.525 7.30841 198.832 5.82564 196.668 4.67473C194.505 3.53088 191.804 2.97308 188.572 3.01544C185.374 3.05781 182.62 3.81331 180.302 5.28902C177.984 6.76473 176.19 8.86178 174.927 11.5873C173.657 14.3127 173.025 17.5536 173.025 21.3241V27.4034C173.025 31.2092 173.724 34.436 175.128 37.0767C176.532 39.7175 178.441 41.7227 180.859 43.0996C183.278 44.4694 185.965 45.1543 188.928 45.1543C193.524 45.1543 197.085 44.1093 199.598 42.0193C202.11 39.9293 203.622 37.2674 204.126 34.0335C204.207 33.8288 204.321 33.7229 204.475 33.7229C204.784 33.7229 204.905 33.8641 204.825 34.1536C204.2 37.7193 202.581 40.5648 199.974 42.6901C197.36 44.8224 193.678 45.8816 188.928 45.8816C185.851 45.8816 183.056 45.1684 180.543 43.7351C178.031 42.3017 176.035 40.2117 174.55 37.4721C173.072 34.7255 172.327 31.3716 172.327 27.3964V21.317C172.327 17.3489 173.005 13.9456 174.369 11.1212C175.733 8.29692 177.634 6.11513 180.066 4.57588C182.499 3.04369 185.334 2.27406 188.572 2.27406C191.495 2.27406 194.008 2.73301 196.111 3.65798C198.214 4.58294 199.94 5.7974 201.284 7.31547C202.628 8.83354 203.575 10.4505 204.119 12.1662V6.94125C204.119 5.26078 204.637 3.84862 205.671 2.70477C206.706 1.56092 207.996 0.981934 209.561 0.981934H214.063C215.581 0.981934 216.858 1.56798 217.892 2.73301C218.927 3.89804 219.444 5.30314 219.444 6.94125V49.6308C219.444 51.3537 218.92 52.7658 217.866 53.8673C216.811 54.9688 215.548 55.5266 214.063 55.5266H209.326L209.313 55.5478Z" fill="#2F2824"/>
<path d="M233.104 49.7718C231.431 49.7718 229.993 49.1716 228.81 47.9572C227.621 46.7498 227.03 45.3235 227.03 43.6854V39.8796C227.03 38.1992 227.568 36.7658 228.636 35.5796C229.704 34.3934 230.927 33.8003 232.291 33.8003C232.526 33.8003 232.64 33.9203 232.64 34.1674C232.64 34.4146 232.526 34.5346 232.291 34.5346C231.081 34.5346 230.02 35.0501 229.106 36.0668C228.192 37.0906 227.735 38.3616 227.735 39.8726V43.6783C227.735 45.1541 228.253 46.4109 229.287 47.4559C230.322 48.5009 231.599 49.0234 233.117 49.0234H273.973C275.492 49.0234 276.761 48.5009 277.769 47.4559C278.784 46.4109 279.288 45.1541 279.288 43.6783V39.8726C279.288 38.3969 278.784 37.14 277.769 36.095C276.755 35.05 275.492 34.5276 273.973 34.5276H271.575C271.266 34.5276 271.104 34.4075 271.104 34.1604C271.104 34.0404 271.145 33.9344 271.219 33.8497C272.038 32.8259 272.582 31.8233 272.858 30.8418C273.127 29.8604 273.288 28.8577 273.328 27.8339C273.409 25.4191 272.831 23.4915 271.602 22.0582C270.372 20.6248 268.86 19.5022 267.073 18.6761C265.864 18.1041 264.93 17.3839 264.265 16.5296C263.6 15.6682 263.116 14.7361 262.8 13.7335C262.491 12.7309 262.236 11.7565 262.041 10.8174C261.692 8.88979 260.865 7.22344 259.555 5.81128C258.252 4.39912 256.27 3.69304 253.622 3.69304C251.829 3.69304 250.391 4.03196 249.296 4.7098C248.207 5.38764 247.367 6.27024 246.783 7.35054C246.198 8.4379 245.768 9.61705 245.5 10.8809C245.224 12.1519 244.606 13.4722 243.632 14.842C242.658 16.2118 241.294 17.271 239.54 18.0053C238.371 18.4995 237.296 19.2268 236.329 20.1871C235.354 21.1473 234.642 22.3265 234.192 23.7175C233.742 25.1084 233.715 26.7465 234.105 28.6318C234.38 30.0228 234.931 31.2231 235.771 32.2257C236.611 33.2284 237.572 33.998 238.667 34.5276C239.755 35.0571 240.83 35.3466 241.878 35.389C244.371 35.4313 246.514 35.0289 248.308 34.1886C250.102 33.3484 251.6 31.7385 252.809 29.3661C252.89 29.2461 252.984 29.1825 253.105 29.1825C253.26 29.1825 253.367 29.2461 253.428 29.3661C253.488 29.4861 253.475 29.6132 253.401 29.7333C252.117 32.2328 250.505 33.9344 248.577 34.8312C246.649 35.7349 244.418 36.1657 241.885 36.1233C240.756 36.0809 239.594 35.7773 238.405 35.2054C237.216 34.6335 236.161 33.7932 235.247 32.6847C234.333 31.5761 233.715 30.2699 233.406 28.7518C233.016 26.7466 233.063 24.9814 233.554 23.4703C234.038 21.9523 234.81 20.6743 235.865 19.6293C236.92 18.5843 238.069 17.7935 239.312 17.2639C240.951 16.5649 242.207 15.6046 243.081 14.376C243.961 13.1475 244.532 11.9401 244.808 10.7538C245.083 9.40523 245.54 8.13429 246.178 6.94807C246.823 5.76186 247.737 4.80159 248.926 4.06021C250.115 3.32588 251.681 2.95166 253.629 2.95166C255.578 2.95166 257.13 3.31176 258.393 4.0249C259.656 4.7451 260.643 5.69125 261.342 6.88452C262.041 8.07074 262.511 9.34168 262.746 10.6903C263.022 12.0813 263.438 13.4652 264.003 14.835C264.567 16.2048 265.669 17.2851 267.308 18.0618C269.176 18.8808 270.789 20.067 272.132 21.6275C273.476 23.1808 274.108 25.2497 274.034 27.8339C273.993 28.8154 273.846 29.8109 273.597 30.8136C273.342 31.8162 272.865 32.8118 272.166 33.7932H273.98C275.653 33.7932 277.077 34.3863 278.246 35.5725C279.415 36.7588 280 38.1921 280 39.8726V43.6783C280 45.3165 279.415 46.7427 278.246 47.9501C277.077 49.1575 275.653 49.7648 273.98 49.7648H233.124L233.104 49.7718Z" fill="#2F2824"/>
</svg>
